# xmcd
#
# Track frame offsets: 
#        182
#        10975
#        19795
#        29125
#        39715
#        49157
#        60160
#        70390
#        81392
#        91870
#        101107
#        110785
#        124010
#        132932
#        143420
#        157177
#        167715
#        179917
#
# Disc length: 2550 seconds
#
# Revision: 4
# Processed by: cddbd v1.5.2PL0 Copyright (c) Steve Scherf et al.
# Submitted via: ExactAudioCopy v1.0b3
#
DISCID=0409f412
DTITLE=The Beatles - Past Masters Volume (1) One
DYEAR=1988
DGENRE=Beat
TTITLE0=Love me do (1962)
TTITLE1=From me to you (1963)
TTITLE2=Thank you girl (1963)
TTITLE3=She loves you (1963)
TTITLE4=I'll get you (1963)
TTITLE5=I want to hold your hand (1963)
TTITLE6=This boy (1963)
TTITLE7=Komm, gib mir deine Hand (1964)
TTITLE8=Sie liebt dich (1964)
TTITLE9=Long tall Sally (1964)
TTITLE10=I call your name (1964)
TTITLE11=Slow down (1964)
TTITLE12=Matchbox (1964)
TTITLE13=I feel fine (1964)
TTITLE14=She's a woman (1964)
TTITLE15=Bad boy (1965)
TTITLE16=Yes it is (1965)
TTITLE17=I'm down (1965)
EXTD=YEAR: 1988
EXTT0=
EXTT1=
EXTT2=
EXTT3=
EXTT4=
EXTT5=
EXTT6=
EXTT7=
EXTT8=
EXTT9=
EXTT10=
EXTT11=
EXTT12=
EXTT13=
EXTT14=
EXTT15=
EXTT16=
EXTT17=
PLAYORDER=
